<?xml version="1.0" encoding="UTF-8" standalone="no"?>
<svg
   xmlns:dc="http://purl.org/dc/elements/1.1/"
   xmlns:cc="http://creativecommons.org/ns#"
   xmlns:rdf="http://www.w3.org/1999/02/22-rdf-syntax-ns#"
   xmlns:svg="http://www.w3.org/2000/svg"
   xmlns="http://www.w3.org/2000/svg"
   xmlns:sodipodi="http://sodipodi.sourceforge.net/DTD/sodipodi-0.dtd"
   xmlns:inkscape="http://www.inkscape.org/namespaces/inkscape"
   width="153mm"
   height="85mm"
   viewBox="0 0 153 85"
   version="1.1"
   id="svg6166"
   inkscape:version="1.0.1 (3bc2e813f5, 2020-09-07)"
   sodipodi:docname="cheesy-backleft.svg">
  <defs
     id="defs6160" />
  <sodipodi:namedview
     id="base"
     pagecolor="#ffffff"
     bordercolor="#666666"
     borderopacity="1.0"
     inkscape:pageopacity="0.0"
     inkscape:pageshadow="2"
     inkscape:zoom="0.35355339"
     inkscape:cx="978.26331"
     inkscape:cy="461.1617"
     inkscape:document-units="mm"
     inkscape:current-layer="layer1"
     inkscape:document-rotation="0"
     showgrid="false"
     inkscape:object-paths="true"
     inkscape:snap-intersection-paths="true"
     inkscape:snap-smooth-nodes="true"
     inkscape:snap-midpoints="true"
     inkscape:snap-nodes="false"
     inkscape:window-width="1366"
     inkscape:window-height="705"
     inkscape:window-x="-8"
     inkscape:window-y="-8"
     inkscape:window-maximized="1"
     showguides="false"
     inkscape:snap-bbox="true"
     inkscape:bbox-paths="true"
     inkscape:bbox-nodes="true"
     inkscape:snap-bbox-edge-midpoints="true"
     inkscape:snap-bbox-midpoints="true" />
  <metadata
     id="metadata6163">
    <rdf:RDF>
      <cc:Work
         rdf:about="">
        <dc:format>image/svg+xml</dc:format>
        <dc:type
           rdf:resource="http://purl.org/dc/dcmitype/StillImage" />
        <dc:title />
      </cc:Work>
    </rdf:RDF>
  </metadata>
  <g
     inkscape:label="Layer 1"
     inkscape:groupmode="layer"
     id="layer1">
    <path
       style="fill:#db3f42;fill-opacity:1;stroke:none;stroke-width:1.365;stroke-linecap:butt;stroke-linejoin:round;stroke-miterlimit:4;stroke-dasharray:none;stroke-opacity:1"
       d="m 146.33631,82.562323 -59.286405,-36.13953 -7.355288,0.35259 c 7.101748,-13.117038 26.730403,-29.078852 49.641103,-16.718048 26.98885,14.561008 22.64873,40.685218 17.00059,52.504988 z"
       id="path6947"
       sodipodi:nodetypes="cccsc" />
    <path
       style="fill:#c13434;fill-opacity:1;stroke:none;stroke-width:0.264583px;stroke-linecap:butt;stroke-linejoin:miter;stroke-opacity:1"
       d="m 111.56208,25.629745 c -1.43736,0.35129 -10.16661,2.49581 -11.573537,3.11742 -13.004928,5.74591 -19.980669,18.133098 -19.980669,18.133098 l 7.042031,-0.45747 c -0.313947,-4.641646 -0.0378,0.033 0,0 5.22752,-4.573676 7.735775,-6.960386 12.114991,-9.723758 4.063354,-2.56404 10.510184,-5.38059 12.982344,-6.26305"
       id="path6949"
       sodipodi:nodetypes="csccsac" />
    <path
       style="color:#000000;font-style:normal;font-variant:normal;font-weight:normal;font-stretch:normal;font-size:medium;line-height:normal;font-family:sans-serif;font-variant-ligatures:normal;font-variant-position:normal;font-variant-caps:normal;font-variant-numeric:normal;font-variant-alternates:normal;font-variant-east-asian:normal;font-feature-settings:normal;font-variation-settings:normal;text-indent:0;text-align:start;text-decoration:none;text-decoration-line:none;text-decoration-style:solid;text-decoration-color:#000000;letter-spacing:normal;word-spacing:normal;text-transform:none;writing-mode:lr-tb;direction:ltr;text-orientation:mixed;dominant-baseline:auto;baseline-shift:baseline;text-anchor:start;white-space:normal;shape-padding:0;shape-margin:0;inline-size:0;clip-rule:nonzero;display:inline;overflow:visible;visibility:visible;opacity:1;isolation:auto;mix-blend-mode:normal;color-interpolation:sRGB;color-interpolation-filters:linearRGB;solid-color:#000000;solid-opacity:1;vector-effect:none;fill:#e86363;fill-opacity:1;fill-rule:nonzero;stroke:none;stroke-width:1.465;stroke-linecap:butt;stroke-linejoin:miter;stroke-miterlimit:4;stroke-dasharray:none;stroke-dashoffset:0;stroke-opacity:1;color-rendering:auto;image-rendering:auto;shape-rendering:auto;text-rendering:auto;enable-background:accumulate;stop-color:#000000;stop-opacity:1"
       d="m 148.00926,50.761463 c 0,0 0.41642,1.89234 0.75909,4.27806 0.34266,2.38572 0.59298,5.28087 0.31784,7.09907 l -0.007,0.047 v 0 c -0.26348,11.96496 -4.77125,19.34499 -4.77125,19.34499 l 1.24817,0.76599 c 0,0 4.69528,-7.69094 4.98057,-19.97822 0.31798,-2.15313 0.031,-5.05688 -0.31808,-7.48697 -0.81605,-2.87745 -0.62938,-2.38505 -2.20937,-4.07 z"
       id="path6951"
       sodipodi:nodetypes="csccccccccc" />
    <path
       style="fill:#ffdada;fill-opacity:1;stroke:none;stroke-width:0.264583px;stroke-linecap:butt;stroke-linejoin:miter;stroke-opacity:1"
       d="m 112.1472,30.435985 c 8.08342,-1.63051 27.24871,3.75583 33.46805,16.193808 0,0 -3.41992,-8.179266 -13.29947,-14.745528 -12.96335,-8.61586 -25.53799,-9.286528 -37.10188,-1.44828"
       id="path6953"
       sodipodi:nodetypes="ccsc" />
    <path
       style="fill:none;fill-opacity:1;stroke:#891313;stroke-width:1.365;stroke-linecap:butt;stroke-linejoin:round;stroke-miterlimit:4;stroke-dasharray:none;stroke-opacity:1"
       d="m 146.33631,82.562323 -59.286405,-36.13953 -7.355288,0.35259 c 7.101748,-13.117038 26.730393,-29.078822 49.641103,-16.718048 7.59061,4.09528 12.70306,9.105242 16.00521,14.454368 8.43885,13.67 5.05498,29.55516 0.99538,38.05062 z"
       id="path6955"
       sodipodi:nodetypes="cccssc" />
    <path
       style="fill:#c13434;fill-opacity:1;stroke:#891313;stroke-width:1.365;stroke-linecap:butt;stroke-linejoin:miter;stroke-miterlimit:4;stroke-dasharray:none;stroke-opacity:1"
       d="m 80.115584,46.681833 c 0,0 -1.416751,-1.47636 -3.129362,-2.2306 -1.491541,-0.656876 -6.904041,-1.909206 -6.904041,-1.909206 h 8.554102 c 0,0 1.844228,0.62666 3.328562,1.809116 1.580781,1.2593 5.08506,2.07165 5.08506,2.07165 z"
       id="path6957"
       sodipodi:nodetypes="csccscc" />
    <path
       style="fill:#db3f3f;fill-opacity:1;stroke:none;stroke-width:0.264583px;stroke-linecap:butt;stroke-linejoin:miter;stroke-opacity:1"
       d="m 74.854354,42.634257 c 2.876995,0.64608 4.901713,2.080306 5.25312,2.680686 l -0.499807,1.38849 -3.086952,-2.478926 -4.536876,-1.21608 z"
       id="path6959"
       sodipodi:nodetypes="cccccc" />
    <path
       style="fill:none;fill-opacity:1;stroke:#891313;stroke-width:1.365;stroke-linecap:butt;stroke-linejoin:miter;stroke-miterlimit:4;stroke-dasharray:none;stroke-opacity:1"
       d="m 80.115584,46.681833 c 0,0 -1.416751,-1.47636 -3.129362,-2.2306 -1.491541,-0.656876 -6.904041,-1.909206 -6.904041,-1.909206 h 8.554102 c 0,0 1.844228,0.62666 3.328562,1.809116 1.580781,1.2593 5.08506,2.07165 5.08506,2.07165 z"
       id="path6961"
       sodipodi:nodetypes="csccscc" />
    <path
       style="fill:#a93232;fill-opacity:1;stroke:#891313;stroke-width:1.365;stroke-linecap:butt;stroke-linejoin:miter;stroke-miterlimit:4;stroke-dasharray:none;stroke-opacity:1"
       d="M 139.98631,82.562323 C 80.592231,46.621223 86.546488,49.716453 79.694617,46.775383 l 7.355288,-0.35259 c 0,0 55.861865,33.77438 57.346215,34.95684 1.58079,1.2593 1.94019,1.18269 1.94019,1.18269 z"
       id="path6963"
       sodipodi:nodetypes="cccscc" />
    <path
       style="fill:#fef6cd;fill-opacity:1;stroke:none;stroke-width:1.365;stroke-linecap:butt;stroke-linejoin:miter;stroke-miterlimit:4;stroke-dasharray:none;stroke-opacity:1"
       d="m 68.7156,16.924955 c -12.917068,-12.7759792 -41.586786,-12.7759792 -54.503851,0 -11.4128528,11.2882 -11.8172995,36.741248 -0.529167,48.154168 13.023975,13.16796 42.538207,13.16796 55.562185,0 C 80.532901,53.666203 80.128454,28.213155 68.7156,16.924955 Z"
       id="path6917"
       sodipodi:nodetypes="aaaaa" />
    <path
       style="fill:#f2de95;fill-opacity:1;stroke:none;stroke-width:0.264583px;stroke-linecap:butt;stroke-linejoin:miter;stroke-opacity:1"
       d="M 71.323625,62.244303 C 59.873428,73.763733 32.472544,73.731823 20.75069,63.945193 12.887205,57.379933 6.0524764,29.834085 19.163199,18.966025 c 13.163685,-9.0633997 -7.570925,3.14373 -4.95145,-2.04107 -10.3202094,8.40709 -12.0942795,37.022018 -0.529167,48.154168 13.859539,13.34068 45.375142,12.3512 57.641043,-2.83482 z"
       id="path6919"
       sodipodi:nodetypes="csccac" />
    <path
       style="fill:none;fill-opacity:1;stroke:#b9a16f;stroke-width:1.365;stroke-linecap:butt;stroke-linejoin:miter;stroke-miterlimit:4;stroke-dasharray:none;stroke-opacity:1"
       d="m 68.7156,16.924955 c -12.917068,-12.7759792 -41.586786,-12.7759792 -54.503851,0 -11.4128528,11.2882 -11.8172995,36.741248 -0.529167,48.154168 13.023975,13.16796 42.538207,13.16796 55.562185,0 C 80.532901,53.666203 80.128454,28.213155 68.7156,16.924955 Z"
       id="path6921"
       sodipodi:nodetypes="aaaaa" />
    <path
       style="fill:#db3f42;fill-opacity:1;stroke:none;stroke-width:1.365;stroke-linecap:butt;stroke-linejoin:round;stroke-miterlimit:4;stroke-dasharray:none;stroke-opacity:1"
       d="M 3.4793329,42.542027 H 79.12173 C 79.07073,27.625935 69.329334,4.2770458 43.297064,4.3278458 12.631018,4.3876458 4.0952696,29.456565 3.4793329,42.542027 Z"
       id="path6923"
       sodipodi:nodetypes="ccsc" />
    <path
       style="fill:#ffdada;fill-opacity:1;stroke:none;stroke-width:0.264583px;stroke-linecap:butt;stroke-linejoin:miter;stroke-opacity:1"
       d="m 25.472973,13.875995 c 5.36483,-5.9683792 12.879048,-9.2392392 26.76724,-8.5325092 0,0 -23.413868,-3.62385 -36.743163,8.4360692"
       id="path6925" />
    <path
       style="fill:#c13434;fill-opacity:1;stroke:none;stroke-width:0.264583px;stroke-linecap:butt;stroke-linejoin:miter;stroke-opacity:1"
       d="m 16.643724,13.641265 c -1.097224,0.99273 -3.272782,2.23002 -4.214646,3.44606 C 3.7229496,28.327785 3.4793329,42.542027 3.4793329,42.542027 H 13.839369 c -0.076,0.081 0.991904,-11.480372 3.207172,-16.696822 1.907231,-4.49109 6.671664,-10.01703 8.426432,-11.96921"
       id="path6927"
       sodipodi:nodetypes="csccac" />
    <path
       style="color:#000000;font-style:normal;font-variant:normal;font-weight:normal;font-stretch:normal;font-size:medium;line-height:normal;font-family:sans-serif;font-variant-ligatures:normal;font-variant-position:normal;font-variant-caps:normal;font-variant-numeric:normal;font-variant-alternates:normal;font-variant-east-asian:normal;font-feature-settings:normal;font-variation-settings:normal;text-indent:0;text-align:start;text-decoration:none;text-decoration-line:none;text-decoration-style:solid;text-decoration-color:#000000;letter-spacing:normal;word-spacing:normal;text-transform:none;writing-mode:lr-tb;direction:ltr;text-orientation:mixed;dominant-baseline:auto;baseline-shift:baseline;text-anchor:start;white-space:normal;shape-padding:0;shape-margin:0;inline-size:0;clip-rule:nonzero;display:inline;overflow:visible;visibility:visible;opacity:1;isolation:auto;mix-blend-mode:normal;color-interpolation:sRGB;color-interpolation-filters:linearRGB;solid-color:#000000;solid-opacity:1;vector-effect:none;fill:#e86363;fill-opacity:1;fill-rule:nonzero;stroke:none;stroke-width:1.465;stroke-linecap:butt;stroke-linejoin:miter;stroke-miterlimit:4;stroke-dasharray:none;stroke-dashoffset:0;stroke-opacity:1;color-rendering:auto;image-rendering:auto;shape-rendering:auto;text-rendering:auto;enable-background:accumulate;stop-color:#000000;stop-opacity:1"
       d="m 66.377852,13.501015 c 0,0 1.244714,1.48495 2.652325,3.44141 1.407611,1.95646 2.969062,4.40729 3.566389,6.14648 l 0.0156,0.0449 v 0 c 5.30235,10.72918 4.720683,19.357412 4.720683,19.357412 l 1.460934,0.10156 c 0,0 0.604044,-8.990612 -4.828093,-20.015622 -0.714307,-2.05593 -2.312288,-4.49739 -3.746079,-6.49024 -2.054788,-2.17338 -1.661471,-1.82322 -3.841769,-2.58594 z"
       id="path6929"
       sodipodi:nodetypes="csccccccccc" />
    <path
       style="fill:none;fill-opacity:1;stroke:#891313;stroke-width:1.365;stroke-linecap:butt;stroke-linejoin:round;stroke-miterlimit:4;stroke-dasharray:none;stroke-opacity:1"
       d="M 3.4793329,42.542027 H 79.12173 C 79.07073,27.625935 69.329334,4.2770458 43.297064,4.3278458 12.631018,4.3876458 4.0952696,29.456565 3.4793329,42.542027 Z"
       id="path6931"
       sodipodi:nodetypes="ccsc" />
  </g>
</svg>
