<?xml version="1.0" encoding="UTF-8" standalone="no"?>
<svg
   xmlns:dc="http://purl.org/dc/elements/1.1/"
   xmlns:cc="http://creativecommons.org/ns#"
   xmlns:rdf="http://www.w3.org/1999/02/22-rdf-syntax-ns#"
   xmlns:svg="http://www.w3.org/2000/svg"
   xmlns="http://www.w3.org/2000/svg"
   xmlns:sodipodi="http://sodipodi.sourceforge.net/DTD/sodipodi-0.dtd"
   xmlns:inkscape="http://www.inkscape.org/namespaces/inkscape"
   width="153mm"
   height="85mm"
   viewBox="0 0 153 85"
   version="1.1"
   id="svg6166"
   inkscape:version="1.0.1 (3bc2e813f5, 2020-09-07)"
   sodipodi:docname="cheesy-faceright.svg">
  <defs
     id="defs6160" />
  <sodipodi:namedview
     id="base"
     pagecolor="#ffffff"
     bordercolor="#666666"
     borderopacity="1.0"
     inkscape:pageopacity="0.0"
     inkscape:pageshadow="2"
     inkscape:zoom="0.35355339"
     inkscape:cx="954.67131"
     inkscape:cy="461.74641"
     inkscape:document-units="mm"
     inkscape:current-layer="layer1"
     inkscape:document-rotation="0"
     showgrid="false"
     inkscape:object-paths="true"
     inkscape:snap-intersection-paths="true"
     inkscape:snap-smooth-nodes="true"
     inkscape:snap-midpoints="true"
     inkscape:snap-nodes="false"
     inkscape:window-width="1366"
     inkscape:window-height="705"
     inkscape:window-x="-8"
     inkscape:window-y="-8"
     inkscape:window-maximized="1"
     showguides="false"
     inkscape:snap-bbox="true"
     inkscape:bbox-paths="true"
     inkscape:bbox-nodes="true"
     inkscape:snap-bbox-edge-midpoints="true"
     inkscape:snap-bbox-midpoints="true" />
  <metadata
     id="metadata6163">
    <rdf:RDF>
      <cc:Work
         rdf:about="">
        <dc:format>image/svg+xml</dc:format>
        <dc:type
           rdf:resource="http://purl.org/dc/dcmitype/StillImage" />
        <dc:title />
      </cc:Work>
    </rdf:RDF>
  </metadata>
  <g
     inkscape:label="Layer 1"
     inkscape:groupmode="layer"
     id="layer1">
    <path
       style="fill:#db3f42;fill-opacity:1;stroke:none;stroke-width:1.365;stroke-linecap:butt;stroke-linejoin:round;stroke-miterlimit:4;stroke-dasharray:none;stroke-opacity:1"
       d="m 7.7318515,82.562326 59.2864825,-36.13953 7.35533,0.35259 C 67.271874,33.658346 47.643134,17.696536 24.732444,30.057336 -2.2564012,44.618346 2.0837146,70.742556 7.7318515,82.562326 Z"
       id="path6901"
       sodipodi:nodetypes="cccsc" />
    <path
       style="fill:#c13434;fill-opacity:1;stroke:none;stroke-width:0.264583px;stroke-linecap:butt;stroke-linejoin:miter;stroke-opacity:1"
       d="m 42.506074,25.629746 c 1.43736,0.35129 10.16662,2.49581 11.57355,3.11742 13.005,5.74591 19.98077,18.1331 19.98077,18.1331 l -7.04206,-0.45747 c 0.31395,-4.64165 0.0378,0.033 0,0 -5.22756,-4.57368 -7.73582,-6.96039 -12.11506,-9.72376 -4.06337,-2.56404 -10.5102,-5.38059 -12.98235,-6.26305"
       id="path6903"
       sodipodi:nodetypes="csccsac" />
    <path
       style="color:#000000;font-style:normal;font-variant:normal;font-weight:normal;font-stretch:normal;font-size:medium;line-height:normal;font-family:sans-serif;font-variant-ligatures:normal;font-variant-position:normal;font-variant-caps:normal;font-variant-numeric:normal;font-variant-alternates:normal;font-variant-east-asian:normal;font-feature-settings:normal;font-variation-settings:normal;text-indent:0;text-align:start;text-decoration:none;text-decoration-line:none;text-decoration-style:solid;text-decoration-color:#000000;letter-spacing:normal;word-spacing:normal;text-transform:none;writing-mode:lr-tb;direction:ltr;text-orientation:mixed;dominant-baseline:auto;baseline-shift:baseline;text-anchor:start;white-space:normal;shape-padding:0;shape-margin:0;inline-size:0;clip-rule:nonzero;display:inline;overflow:visible;visibility:visible;opacity:1;isolation:auto;mix-blend-mode:normal;color-interpolation:sRGB;color-interpolation-filters:linearRGB;solid-color:#000000;solid-opacity:1;vector-effect:none;fill:#e86363;fill-opacity:1;fill-rule:nonzero;stroke:none;stroke-width:1.465;stroke-linecap:butt;stroke-linejoin:miter;stroke-miterlimit:4;stroke-dasharray:none;stroke-dashoffset:0;stroke-opacity:1;color-rendering:auto;image-rendering:auto;shape-rendering:auto;text-rendering:auto;enable-background:accumulate;stop-color:#000000;stop-opacity:1"
       d="m 6.0588994,50.761466 c 0,0 -0.4164127,1.89234 -0.7590857,4.27806 -0.3426627,2.38572 -0.5929764,5.28087 -0.3178407,7.09907 l 0.007,0.047 v 0 c 0.2634817,11.96496 4.7712483,19.34499 4.7712483,19.34499 l -1.2481704,0.76599 c 0,0 -4.6952733,-7.69094 -4.9805633,-19.97822 -0.317987,-2.15313 -0.03095,-5.05688 0.31808,-7.48697 0.8160467,-2.87745 0.6293757,-2.38505 2.2093698,-4.07 z"
       id="path6905"
       sodipodi:nodetypes="csccccccccc" />
    <path
       style="fill:#ffdada;fill-opacity:1;stroke:none;stroke-width:0.264583px;stroke-linecap:butt;stroke-linejoin:miter;stroke-opacity:1"
       d="m 41.920964,30.435986 c -8.08342,-1.63051 -27.248717,3.75583 -33.4680521,16.19381 0,0 3.4199221,-8.17927 13.2994721,-14.74553 12.96335,-8.61586 20.74095,-6.25498 26.88092,-5.42819"
       id="path6907"
       sodipodi:nodetypes="ccsc" />
    <path
       style="fill:none;fill-opacity:1;stroke:#891313;stroke-width:1.365;stroke-linecap:butt;stroke-linejoin:round;stroke-miterlimit:4;stroke-dasharray:none;stroke-opacity:1"
       d="m 7.7318515,82.562326 59.2864825,-36.13953 7.35533,0.35259 c -7.10179,-13.11704 -26.73051,-29.07882 -49.64122,-16.71805 -7.590615,4.09528 -12.703058,9.10524 -16.0052161,14.45437 -8.43884724,13.67 -5.0549743,29.55516 -0.9953764,38.05062 z"
       id="path6909"
       sodipodi:nodetypes="cccssc" />
    <path
       style="fill:#c13434;fill-opacity:1;stroke:#891313;stroke-width:1.365;stroke-linecap:butt;stroke-linejoin:miter;stroke-miterlimit:4;stroke-dasharray:none;stroke-opacity:1"
       d="m 73.952694,46.681836 c 0,0 1.41676,-1.47636 3.12937,-2.2306 1.49156,-0.65688 6.90409,-1.90921 6.90409,-1.90921 h -8.55415 c 0,0 -1.84424,0.62666 -3.32858,1.80912 -1.58079,1.2593 -5.08509,2.07165 -5.08509,2.07165 z"
       id="path6895"
       sodipodi:nodetypes="csccscc" />
    <path
       style="fill:#db3f3f;fill-opacity:1;stroke:none;stroke-width:0.264583px;stroke-linecap:butt;stroke-linejoin:miter;stroke-opacity:1"
       d="m 79.213954,42.634256 c -2.87701,0.64608 -4.90175,2.08031 -5.25315,2.68069 l 0.49981,1.38849 3.08697,-2.47893 4.5369,-1.21608 z"
       id="path6897"
       sodipodi:nodetypes="cccccc" />
    <path
       style="fill:none;fill-opacity:1;stroke:#891313;stroke-width:1.365;stroke-linecap:butt;stroke-linejoin:miter;stroke-miterlimit:4;stroke-dasharray:none;stroke-opacity:1"
       d="m 73.952694,46.681836 c 0,0 1.41676,-1.47636 3.12937,-2.2306 1.49156,-0.65688 6.90409,-1.90921 6.90409,-1.90921 h -8.55415 c 0,0 -1.84424,0.62666 -3.32858,1.80912 -1.58079,1.2593 -5.08509,2.07165 -5.08509,2.07165 z"
       id="path6899"
       sodipodi:nodetypes="csccscc" />
    <path
       style="fill:#fef6cd;fill-opacity:1;stroke:none;stroke-width:1.365;stroke-linecap:butt;stroke-linejoin:miter;stroke-miterlimit:4;stroke-dasharray:none;stroke-opacity:1"
       d="m 140.66862,16.924956 c -12.91714,-12.7759796 -41.587014,-12.7759796 -54.504136,0 -11.41292,11.2882 -11.81737,36.74125 -0.52917,48.15417 13.024035,13.16796 42.538426,13.16796 55.562476,0 11.2882,-11.41292 10.88375,-36.86597 -0.52917,-48.15417 z"
       id="path6879"
       sodipodi:nodetypes="aaaaa" />
    <path
       style="fill:#f2de95;fill-opacity:1;stroke:none;stroke-width:0.264583px;stroke-linecap:butt;stroke-linejoin:miter;stroke-opacity:1"
       d="m 83.491084,62.244306 c 11.450266,11.51943 38.851276,11.48752 50.573196,1.70089 7.86353,-6.56526 14.6983,-34.11111 1.5875,-44.97917 -13.16376,-9.0633997 7.57097,3.14373 4.95148,-2.04107 10.32027,8.40709 12.09435,37.02202 0.52917,48.15417 -13.85962,13.34068 -45.375373,12.3512 -57.641346,-2.83482 z"
       id="path6881"
       sodipodi:nodetypes="csccac" />
    <path
       style="fill:none;fill-opacity:1;stroke:#b9a16f;stroke-width:1.365;stroke-linecap:butt;stroke-linejoin:miter;stroke-miterlimit:4;stroke-dasharray:none;stroke-opacity:1"
       d="m 140.66862,16.924956 c -12.91714,-12.7759796 -41.587014,-12.7759796 -54.504136,0 -11.41292,11.2882 -11.81737,36.74125 -0.52917,48.15417 13.024035,13.16796 42.538426,13.16796 55.562476,0 11.2882,-11.41292 10.88375,-36.86597 -0.52917,-48.15417 z"
       id="path6883"
       sodipodi:nodetypes="aaaaa" />
    <path
       style="fill:#db3f42;fill-opacity:1;stroke:none;stroke-width:1.365;stroke-linecap:butt;stroke-linejoin:round;stroke-miterlimit:4;stroke-dasharray:none;stroke-opacity:1"
       d="M 75.432004,42.542026 H 151.07481 C 151.02381,27.625936 141.28236,4.2770464 115.24994,4.3278464 84.583744,4.3876464 76.047944,29.456566 75.432004,42.542026 Z"
       id="path6885"
       sodipodi:nodetypes="ccsc" />
    <path
       style="fill:#ffdada;fill-opacity:1;stroke:none;stroke-width:0.264583px;stroke-linecap:butt;stroke-linejoin:miter;stroke-opacity:1"
       d="M 129.56309,13.875996 C 124.19823,7.9076166 116.68397,4.6367564 102.7957,5.3434864 c 0,0 23.414,-3.62385 36.74337,8.4360696"
       id="path6887" />
    <path
       style="fill:#c13434;fill-opacity:1;stroke:none;stroke-width:0.264583px;stroke-linecap:butt;stroke-linejoin:miter;stroke-opacity:1"
       d="m 138.23662,13.641266 c 1.09723,0.99273 3.2728,2.23002 4.21467,3.44606 8.70618,11.24046 8.9498,25.4547 8.9498,25.4547 h -10.3601 c 0.076,0.081 -0.99191,-11.48037 -3.20719,-16.69682 -1.90724,-4.49109 -6.6717,-10.01703 -8.42648,-11.96921"
       id="path6889"
       sodipodi:nodetypes="csccac" />
    <path
       style="color:#000000;font-style:normal;font-variant:normal;font-weight:normal;font-stretch:normal;font-size:medium;line-height:normal;font-family:sans-serif;font-variant-ligatures:normal;font-variant-position:normal;font-variant-caps:normal;font-variant-numeric:normal;font-variant-alternates:normal;font-variant-east-asian:normal;font-feature-settings:normal;font-variation-settings:normal;text-indent:0;text-align:start;text-decoration:none;text-decoration-line:none;text-decoration-style:solid;text-decoration-color:#000000;letter-spacing:normal;word-spacing:normal;text-transform:none;writing-mode:lr-tb;direction:ltr;text-orientation:mixed;dominant-baseline:auto;baseline-shift:baseline;text-anchor:start;white-space:normal;shape-padding:0;shape-margin:0;inline-size:0;clip-rule:nonzero;display:inline;overflow:visible;visibility:visible;opacity:1;isolation:auto;mix-blend-mode:normal;color-interpolation:sRGB;color-interpolation-filters:linearRGB;solid-color:#000000;solid-opacity:1;vector-effect:none;fill:#e86363;fill-opacity:1;fill-rule:nonzero;stroke:none;stroke-width:1.465;stroke-linecap:butt;stroke-linejoin:miter;stroke-miterlimit:4;stroke-dasharray:none;stroke-dashoffset:0;stroke-opacity:1;color-rendering:auto;image-rendering:auto;shape-rendering:auto;text-rendering:auto;enable-background:accumulate;stop-color:#000000;stop-opacity:1"
       d="m 88.324804,13.501016 c 0,0 -1.24472,1.48495 -2.65234,3.44141 -1.40762,1.95646 -2.96908,4.40729 -3.56641,6.14648 l -0.0156,0.0449 v 0 c -5.30238,10.72918 -4.72071,19.35741 -4.72071,19.35741 l -1.46094,0.10156 c 0,0 -0.60405,-8.99061 4.82812,-20.01562 0.71431,-2.05593 3.50174,-3.64188 4.93554,-5.63473 2.0548,-2.17338 0.47204,-2.67873 2.65235,-3.44145 z"
       id="path6891"
       sodipodi:nodetypes="csccccccccc" />
    <path
       style="fill:none;fill-opacity:1;stroke:#891313;stroke-width:1.365;stroke-linecap:butt;stroke-linejoin:round;stroke-miterlimit:4;stroke-dasharray:none;stroke-opacity:1"
       d="M 75.432004,42.542026 H 151.07481 C 151.02381,27.625936 141.28236,4.2770464 115.24994,4.3278464 84.583744,4.3876464 76.047944,29.456566 75.432004,42.542026 Z"
       id="path6893"
       sodipodi:nodetypes="ccsc" />
    <path
       style="fill:#a93232;fill-opacity:1;stroke:#891313;stroke-width:1.365;stroke-linecap:butt;stroke-linejoin:miter;stroke-miterlimit:4;stroke-dasharray:none;stroke-opacity:1"
       d="m 14.08185,82.562326 c 59.394184,-35.9411 53.439904,-32.84587 60.291814,-35.78694 l -7.35533,-0.35259 c 0,0 -55.861948,33.77438 -57.3462877,34.95684 -1.5807891,1.2593 -1.9401948,1.18269 -1.9401948,1.18269 z"
       id="path6913"
       sodipodi:nodetypes="cccscc" />
  </g>
</svg>
