<?xml version="1.0" encoding="UTF-8" standalone="no"?>
<svg
   xmlns:dc="http://purl.org/dc/elements/1.1/"
   xmlns:cc="http://creativecommons.org/ns#"
   xmlns:rdf="http://www.w3.org/1999/02/22-rdf-syntax-ns#"
   xmlns:svg="http://www.w3.org/2000/svg"
   xmlns="http://www.w3.org/2000/svg"
   xmlns:sodipodi="http://sodipodi.sourceforge.net/DTD/sodipodi-0.dtd"
   xmlns:inkscape="http://www.inkscape.org/namespaces/inkscape"
   width="153mm"
   height="85mm"
   viewBox="0 0 153 85"
   version="1.1"
   id="svg6166"
   inkscape:version="1.0.1 (3bc2e813f5, 2020-09-07)"
   sodipodi:docname="cheesy-backright.svg">
  <defs
     id="defs6160" />
  <sodipodi:namedview
     id="base"
     pagecolor="#ffffff"
     bordercolor="#666666"
     borderopacity="1.0"
     inkscape:pageopacity="0.0"
     inkscape:pageshadow="2"
     inkscape:zoom="0.35355339"
     inkscape:cx="1062.2907"
     inkscape:cy="270.85936"
     inkscape:document-units="mm"
     inkscape:current-layer="layer1"
     inkscape:document-rotation="0"
     showgrid="false"
     inkscape:object-paths="true"
     inkscape:snap-intersection-paths="true"
     inkscape:snap-smooth-nodes="true"
     inkscape:snap-midpoints="true"
     inkscape:snap-nodes="false"
     inkscape:window-width="1366"
     inkscape:window-height="705"
     inkscape:window-x="-8"
     inkscape:window-y="-8"
     inkscape:window-maximized="1"
     showguides="false"
     inkscape:snap-bbox="true"
     inkscape:bbox-paths="true"
     inkscape:bbox-nodes="true"
     inkscape:snap-bbox-edge-midpoints="true"
     inkscape:snap-bbox-midpoints="true" />
  <metadata
     id="metadata6163">
    <rdf:RDF>
      <cc:Work
         rdf:about="">
        <dc:format>image/svg+xml</dc:format>
        <dc:type
           rdf:resource="http://purl.org/dc/dcmitype/StillImage" />
        <dc:title />
      </cc:Work>
    </rdf:RDF>
  </metadata>
  <g
     inkscape:label="Layer 1"
     inkscape:groupmode="layer"
     id="layer1">
    <path
       style="fill:#fef6cd;fill-opacity:1;stroke:none;stroke-width:1.365;stroke-linecap:butt;stroke-linejoin:miter;stroke-miterlimit:4;stroke-dasharray:none;stroke-opacity:1"
       d="m 67.661216,17.598621 c -12.917068,-12.775979 -41.586786,-12.775979 -54.503851,0 -11.4128522,11.2882 -11.8172989,36.74125 -0.529167,48.15417 13.023975,13.16796 42.538207,13.16796 55.562185,0 11.288134,-11.41292 10.883687,-36.86597 -0.529167,-48.15417 z"
       id="path6965"
       sodipodi:nodetypes="aaaaa" />
    <path
       style="fill:#f2de95;fill-opacity:1;stroke:none;stroke-width:0.264583px;stroke-linecap:butt;stroke-linejoin:miter;stroke-opacity:1"
       d="m 10.48398,62.917971 c 11.450194,11.51943 38.851078,11.48752 50.572932,1.70089 7.863485,-6.56526 14.698216,-34.11111 1.587491,-44.97917 -13.163685,-9.0634 7.570928,3.14373 4.951453,-2.04107 10.32021,8.40709 12.094281,37.02202 0.529167,48.15417 -13.859542,13.34068 -45.375145,12.3512 -57.641043,-2.83482 z"
       id="path6967"
       sodipodi:nodetypes="csccac" />
    <path
       style="fill:none;fill-opacity:1;stroke:#b9a16f;stroke-width:1.365;stroke-linecap:butt;stroke-linejoin:miter;stroke-miterlimit:4;stroke-dasharray:none;stroke-opacity:1"
       d="m 67.661216,17.598621 c -12.917068,-12.775979 -41.586786,-12.775979 -54.503851,0 -11.4128522,11.2882 -11.8172989,36.74125 -0.529167,48.15417 13.023975,13.16796 42.538207,13.16796 55.562185,0 11.288134,-11.41292 10.883687,-36.86597 -0.529167,-48.15417 z"
       id="path6969"
       sodipodi:nodetypes="aaaaa" />
    <path
       style="fill:#db3f42;fill-opacity:1;stroke:none;stroke-width:1.365;stroke-linecap:butt;stroke-linejoin:round;stroke-miterlimit:4;stroke-dasharray:none;stroke-opacity:1"
       d="M 2.4249495,43.215691 H 78.067346 C 78.016346,28.299601 68.27495,4.950712 42.24268,5.001512 11.576634,5.061312 3.0408862,30.130231 2.4249495,43.215691 Z"
       id="path6971"
       sodipodi:nodetypes="ccsc" />
    <path
       style="fill:#ffdada;fill-opacity:1;stroke:none;stroke-width:0.264583px;stroke-linecap:butt;stroke-linejoin:miter;stroke-opacity:1"
       d="M 56.555749,14.549661 C 51.190919,8.581282 43.676701,5.310422 29.788509,6.017152 c 0,0 23.413868,-3.62385 36.743163,8.436069"
       id="path6973" />
    <path
       style="fill:#c13434;fill-opacity:1;stroke:none;stroke-width:0.264583px;stroke-linecap:butt;stroke-linejoin:miter;stroke-opacity:1"
       d="m 65.229228,14.314931 c 1.097224,0.99273 3.272782,2.23002 4.214646,3.44606 8.706132,11.24046 8.949749,25.4547 8.949749,25.4547 h -10.36004 c 0.076,0.081 -0.991904,-11.48037 -3.207172,-16.69682 -1.907228,-4.49109 -6.671661,-10.01703 -8.426432,-11.96921"
       id="path6975"
       sodipodi:nodetypes="csccac" />
    <path
       style="color:#000000;font-style:normal;font-variant:normal;font-weight:normal;font-stretch:normal;font-size:medium;line-height:normal;font-family:sans-serif;font-variant-ligatures:normal;font-variant-position:normal;font-variant-caps:normal;font-variant-numeric:normal;font-variant-alternates:normal;font-variant-east-asian:normal;font-feature-settings:normal;font-variation-settings:normal;text-indent:0;text-align:start;text-decoration:none;text-decoration-line:none;text-decoration-style:solid;text-decoration-color:#000000;letter-spacing:normal;word-spacing:normal;text-transform:none;writing-mode:lr-tb;direction:ltr;text-orientation:mixed;dominant-baseline:auto;baseline-shift:baseline;text-anchor:start;white-space:normal;shape-padding:0;shape-margin:0;inline-size:0;clip-rule:nonzero;display:inline;overflow:visible;visibility:visible;opacity:1;isolation:auto;mix-blend-mode:normal;color-interpolation:sRGB;color-interpolation-filters:linearRGB;solid-color:#000000;solid-opacity:1;vector-effect:none;fill:#e86363;fill-opacity:1;fill-rule:nonzero;stroke:none;stroke-width:1.465;stroke-linecap:butt;stroke-linejoin:miter;stroke-miterlimit:4;stroke-dasharray:none;stroke-dashoffset:0;stroke-opacity:1;color-rendering:auto;image-rendering:auto;shape-rendering:auto;text-rendering:auto;enable-background:accumulate;stop-color:#000000;stop-opacity:1"
       d="m 15.317673,14.174681 c 0,0 -1.244714,1.48495 -2.652325,3.44141 -1.407614,1.95646 -2.9690647,4.40729 -3.5663914,6.14648 l -0.0156,0.0449 v 0 c -5.302347,10.72918 -4.7206803,19.35741 -4.7206803,19.35741 l -1.4609301,0.10156 c 0,0 -0.6040467,-8.99061 4.8280903,-20.01562 0.7143064,-2.05593 3.5017175,-3.64188 4.9355115,-5.63473 2.054788,-2.17338 0.472037,-2.67873 2.652335,-3.44145 z"
       id="path6977"
       sodipodi:nodetypes="csccccccccc" />
    <path
       style="fill:none;fill-opacity:1;stroke:#891313;stroke-width:1.365;stroke-linecap:butt;stroke-linejoin:round;stroke-miterlimit:4;stroke-dasharray:none;stroke-opacity:1"
       d="M 2.4249495,43.215691 H 78.067346 C 78.016346,28.299601 68.27495,4.950712 42.24268,5.001512 11.576634,5.061312 3.0408862,30.130231 2.4249495,43.215691 Z"
       id="path6979"
       sodipodi:nodetypes="ccsc" />
    <path
       style="fill:#e86363;fill-opacity:1;stroke:#891313;stroke-width:1.365;stroke-linecap:butt;stroke-linejoin:miter;stroke-miterlimit:4;stroke-dasharray:none;stroke-opacity:1"
       d="m 80.153574,47.263271 c 0,0 -1.416751,-1.47636 -3.129352,-2.2306 -1.491551,-0.65688 -6.904051,-1.90921 -6.904051,-1.90921 h 8.554102 c 0,0 1.844228,0.62666 3.328562,1.80912 1.580781,1.2593 5.08507,2.07165 5.08507,2.07165 z"
       id="path6981"
       sodipodi:nodetypes="csccscc" />
    <path
       style="fill:#db3f3f;fill-opacity:1;stroke:none;stroke-width:0.264583px;stroke-linecap:butt;stroke-linejoin:miter;stroke-opacity:1"
       d="m 74.892344,43.215691 c 2.876995,0.64608 4.901723,2.08031 5.25312,2.68069 l -0.499807,1.38849 -3.086952,-2.47893 -4.536876,-1.21608 z"
       id="path6983"
       sodipodi:nodetypes="cccccc" />
    <path
       style="fill:none;fill-opacity:1;stroke:#891313;stroke-width:1.365;stroke-linecap:butt;stroke-linejoin:miter;stroke-miterlimit:4;stroke-dasharray:none;stroke-opacity:1"
       d="m 80.153574,47.263271 c 0,0 -1.416751,-1.47636 -3.129352,-2.2306 -1.491551,-0.65688 -6.904051,-1.90921 -6.904051,-1.90921 h 8.554102 c 0,0 1.844228,0.62666 3.328562,1.80912 1.580781,1.2593 5.08507,2.07165 5.08507,2.07165 z"
       id="path6985"
       sodipodi:nodetypes="csccscc" />
    <path
       style="fill:#db3f42;fill-opacity:1;stroke:none;stroke-width:1.365;stroke-linecap:butt;stroke-linejoin:round;stroke-miterlimit:4;stroke-dasharray:none;stroke-opacity:1"
       d="M 146.37431,83.143771 79.732607,47.356821 c 7.101758,-13.11704 26.730413,-29.07885 49.641103,-16.71805 26.98885,14.56101 22.64874,40.68522 17.0006,52.505 z"
       id="path6987"
       sodipodi:nodetypes="ccsc" />
    <path
       style="fill:#c13434;fill-opacity:1;stroke:none;stroke-width:0.264583px;stroke-linecap:butt;stroke-linejoin:miter;stroke-opacity:1"
       d="m 146.90967,47.483461 c 0.497,1.3937 3.36805,7.48342 3.62253,9.00036 2.35229,14.02185 -4.15789,26.65995 -4.15789,26.65995 l -7.53982,-3.84309 c 3.82778,-6.04656 4.1503,-13.41667 4.12956,-20.33252 -0.0117,-3.91121 -1.78199,-8.93462 -2.40438,-11.4847"
       id="path6989"
       sodipodi:nodetypes="csccac" />
    <path
       style="color:#000000;font-style:normal;font-variant:normal;font-weight:normal;font-stretch:normal;font-size:medium;line-height:normal;font-family:sans-serif;font-variant-ligatures:normal;font-variant-position:normal;font-variant-caps:normal;font-variant-numeric:normal;font-variant-alternates:normal;font-variant-east-asian:normal;font-feature-settings:normal;font-variation-settings:normal;text-indent:0;text-align:start;text-decoration:none;text-decoration-line:none;text-decoration-style:solid;text-decoration-color:#000000;letter-spacing:normal;word-spacing:normal;text-transform:none;writing-mode:lr-tb;direction:ltr;text-orientation:mixed;dominant-baseline:auto;baseline-shift:baseline;text-anchor:start;white-space:normal;shape-padding:0;shape-margin:0;inline-size:0;clip-rule:nonzero;display:inline;overflow:visible;visibility:visible;opacity:1;isolation:auto;mix-blend-mode:normal;color-interpolation:sRGB;color-interpolation-filters:linearRGB;solid-color:#000000;solid-opacity:1;vector-effect:none;fill:#e86363;fill-opacity:1;fill-rule:nonzero;stroke:none;stroke-width:1.465;stroke-linecap:butt;stroke-linejoin:miter;stroke-miterlimit:4;stroke-dasharray:none;stroke-dashoffset:0;stroke-opacity:1;color-rendering:auto;image-rendering:auto;shape-rendering:auto;text-rendering:auto;enable-background:accumulate;stop-color:#000000;stop-opacity:1"
       d="m 104.69941,27.800721 c 0,0 -1.79914,0.71937 -3.96487,1.77707 -2.165731,1.05771 -4.700856,2.47817 -6.049917,3.7278 l -0.035,0.0322 v 0 c -9.747386,6.94389 -13.316975,14.82061 -13.316975,14.82061 l -1.335144,-0.6017 c 0,0 3.721309,-8.20657 13.723002,-15.34968 1.601981,-1.47335 4.164856,-2.86827 6.370854,-3.94566 2.83853,-0.94262 2.32635,-0.82021 4.60806,-0.46066 z"
       id="path6991"
       sodipodi:nodetypes="csccccccccc" />
    <path
       style="fill:#ffdada;fill-opacity:1;stroke:none;stroke-width:0.264583px;stroke-linecap:butt;stroke-linejoin:miter;stroke-opacity:1"
       d="m 140.55967,47.483461 c -2.55853,-7.83927 -16.67896,-21.87261 -30.56723,-21.16588 0,0 8.8033,-1.04795 19.38127,4.32119 13.8798,7.04506 13.23523,12.95354 17.53596,16.84469"
       id="path6993"
       sodipodi:nodetypes="ccsc" />
    <path
       style="fill:none;fill-opacity:1;stroke:#891313;stroke-width:1.365;stroke-linecap:butt;stroke-linejoin:round;stroke-miterlimit:4;stroke-dasharray:none;stroke-opacity:1"
       d="M 146.37431,83.143771 79.732607,47.356821 c 7.101758,-13.11704 26.730393,-29.07882 49.641103,-16.71805 7.59062,4.09528 12.70306,9.10524 16.00522,14.45437 8.43885,13.67 5.05498,29.55516 0.99538,38.05063 z"
       id="path6995"
       sodipodi:nodetypes="ccssc" />
  </g>
</svg>
