<?xml version="1.0" encoding="UTF-8" standalone="no"?>
<svg
   xmlns:dc="http://purl.org/dc/elements/1.1/"
   xmlns:cc="http://creativecommons.org/ns#"
   xmlns:rdf="http://www.w3.org/1999/02/22-rdf-syntax-ns#"
   xmlns:svg="http://www.w3.org/2000/svg"
   xmlns="http://www.w3.org/2000/svg"
   xmlns:sodipodi="http://sodipodi.sourceforge.net/DTD/sodipodi-0.dtd"
   xmlns:inkscape="http://www.inkscape.org/namespaces/inkscape"
   width="153mm"
   height="85mm"
   viewBox="0 0 153 85"
   version="1.1"
   id="svg6166"
   inkscape:version="1.0.1 (3bc2e813f5, 2020-09-07)"
   sodipodi:docname="cheesy-faceleft.svg">
  <defs
     id="defs6160" />
  <sodipodi:namedview
     id="base"
     pagecolor="#ffffff"
     bordercolor="#666666"
     borderopacity="1.0"
     inkscape:pageopacity="0.0"
     inkscape:pageshadow="2"
     inkscape:zoom="0.35355339"
     inkscape:cx="1124.8806"
     inkscape:cy="1004.7534"
     inkscape:document-units="mm"
     inkscape:current-layer="layer1"
     inkscape:document-rotation="0"
     showgrid="false"
     inkscape:object-paths="true"
     inkscape:snap-intersection-paths="true"
     inkscape:snap-smooth-nodes="true"
     inkscape:snap-midpoints="true"
     inkscape:snap-nodes="false"
     inkscape:window-width="1366"
     inkscape:window-height="705"
     inkscape:window-x="-8"
     inkscape:window-y="-8"
     inkscape:window-maximized="1"
     showguides="false" />
  <metadata
     id="metadata6163">
    <rdf:RDF>
      <cc:Work
         rdf:about="">
        <dc:format>image/svg+xml</dc:format>
        <dc:type
           rdf:resource="http://purl.org/dc/dcmitype/StillImage" />
        <dc:title />
      </cc:Work>
    </rdf:RDF>
  </metadata>
  <g
     inkscape:label="Layer 1"
     inkscape:groupmode="layer"
     id="layer1">
    <path
       style="fill:#fef6cd;fill-opacity:1;stroke:none;stroke-width:1.365;stroke-linecap:butt;stroke-linejoin:miter;stroke-miterlimit:4;stroke-dasharray:none;stroke-opacity:1"
       d="m 139.8608,16.482411 c -12.91714,-12.7759799 -41.587017,-12.7759799 -54.504157,0 -11.41292,11.2882 -11.81737,36.74125 -0.52917,48.15417 13.02405,13.16796 42.538447,13.16796 55.562497,0 11.2882,-11.41292 10.88375,-36.86597 -0.52917,-48.15417 z"
       id="path7029"
       sodipodi:nodetypes="aaaaa" />
    <path
       style="fill:#f2de95;fill-opacity:1;stroke:none;stroke-width:0.264583px;stroke-linecap:butt;stroke-linejoin:miter;stroke-opacity:1"
       d="m 142.46884,61.801761 c -11.45026,11.51943 -38.8513,11.48752 -50.573217,1.70089 -7.86353,-6.56526 -14.6983,-34.11111 -1.5875,-44.97917 13.163757,-9.0633999 -7.57097,3.14373 -4.95148,-2.04107 -10.32027,8.40709 -12.09435,37.02202 -0.52917,48.15417 13.85962,13.34068 45.375397,12.3512 57.641367,-2.83482 z"
       id="path7031"
       sodipodi:nodetypes="csccac" />
    <path
       style="fill:none;fill-opacity:1;stroke:#b9a16f;stroke-width:1.365;stroke-linecap:butt;stroke-linejoin:miter;stroke-miterlimit:4;stroke-dasharray:none;stroke-opacity:1"
       d="m 139.8608,16.482411 c -12.91714,-12.7759799 -41.587017,-12.7759799 -54.504157,0 -11.41292,11.2882 -11.81737,36.74125 -0.52917,48.15417 13.02405,13.16796 42.538447,13.16796 55.562497,0 11.2882,-11.41292 10.88375,-36.86597 -0.52917,-48.15417 z"
       id="path7033"
       sodipodi:nodetypes="aaaaa" />
    <path
       style="fill:#db3f42;fill-opacity:1;stroke:none;stroke-width:1.365;stroke-linecap:butt;stroke-linejoin:round;stroke-miterlimit:4;stroke-dasharray:none;stroke-opacity:1"
       d="M 74.624163,42.099481 H 150.26699 C 150.21599,27.183391 140.47454,3.8345011 114.44212,3.8853011 83.775903,3.9451011 75.240103,29.014021 74.624163,42.099481 Z"
       id="path7035"
       sodipodi:nodetypes="ccsc" />
    <path
       style="fill:#ffdada;fill-opacity:1;stroke:none;stroke-width:0.264583px;stroke-linecap:butt;stroke-linejoin:miter;stroke-opacity:1"
       d="m 96.617933,13.433451 c 5.364857,-5.9683799 12.879117,-9.2392399 26.767387,-8.5325099 0,0 -23.413997,-3.62385 -36.743367,8.4360699"
       id="path7037" />
    <path
       style="fill:#c13434;fill-opacity:1;stroke:none;stroke-width:0.264583px;stroke-linecap:butt;stroke-linejoin:miter;stroke-opacity:1"
       d="m 87.788633,13.198721 c -1.09723,0.99273 -3.2728,2.23002 -4.21467,3.44606 -8.70618,11.24046 -8.9498,25.4547 -8.9498,25.4547 h 10.3601 c -0.076,0.081 0.99191,-11.48037 3.20719,-16.69682 1.90724,-4.49109 6.6717,-10.01703 8.42648,-11.96921"
       id="path7039"
       sodipodi:nodetypes="csccac" />
    <path
       style="color:#000000;font-style:normal;font-variant:normal;font-weight:normal;font-stretch:normal;font-size:medium;line-height:normal;font-family:sans-serif;font-variant-ligatures:normal;font-variant-position:normal;font-variant-caps:normal;font-variant-numeric:normal;font-variant-alternates:normal;font-variant-east-asian:normal;font-feature-settings:normal;font-variation-settings:normal;text-indent:0;text-align:start;text-decoration:none;text-decoration-line:none;text-decoration-style:solid;text-decoration-color:#000000;letter-spacing:normal;word-spacing:normal;text-transform:none;writing-mode:lr-tb;direction:ltr;text-orientation:mixed;dominant-baseline:auto;baseline-shift:baseline;text-anchor:start;white-space:normal;shape-padding:0;shape-margin:0;inline-size:0;clip-rule:nonzero;display:inline;overflow:visible;visibility:visible;opacity:1;isolation:auto;mix-blend-mode:normal;color-interpolation:sRGB;color-interpolation-filters:linearRGB;solid-color:#000000;solid-opacity:1;vector-effect:none;fill:#e86363;fill-opacity:1;fill-rule:nonzero;stroke:none;stroke-width:1.465;stroke-linecap:butt;stroke-linejoin:miter;stroke-miterlimit:4;stroke-dasharray:none;stroke-dashoffset:0;stroke-opacity:1;color-rendering:auto;image-rendering:auto;shape-rendering:auto;text-rendering:auto;enable-background:accumulate;stop-color:#000000;stop-opacity:1"
       d="m 137.52304,13.058471 c 0,0 1.24472,1.48495 2.65234,3.44141 1.40762,1.95646 2.96908,4.40729 3.56641,6.14648 l 0.0156,0.0449 v 0 c 5.30238,10.72918 4.72071,19.35741 4.72071,19.35741 l 1.46094,0.10156 c 0,0 0.60405,-8.99061 -4.82812,-20.01562 -0.71431,-2.05593 -2.3123,-4.49739 -3.7461,-6.49024 -2.0548,-2.17338 -1.66148,-1.82322 -3.84179,-2.58594 z"
       id="path7041"
       sodipodi:nodetypes="csccccccccc" />
    <path
       style="fill:none;fill-opacity:1;stroke:#891313;stroke-width:1.365;stroke-linecap:butt;stroke-linejoin:round;stroke-miterlimit:4;stroke-dasharray:none;stroke-opacity:1"
       d="M 74.624163,42.099481 H 150.26699 C 150.21599,27.183391 140.47454,3.8345011 114.44212,3.8853011 83.775903,3.9451011 75.240103,29.014021 74.624163,42.099481 Z"
       id="path7043"
       sodipodi:nodetypes="ccsc" />
    <path
       style="fill:#e86363;fill-opacity:1;stroke:#891313;stroke-width:1.365;stroke-linecap:butt;stroke-linejoin:miter;stroke-miterlimit:4;stroke-dasharray:none;stroke-opacity:1"
       d="m 73.144853,46.239291 c 0,0 1.41676,-1.47636 3.12937,-2.2306 1.49156,-0.65688 6.90409,-1.90921 6.90409,-1.90921 h -8.55415 c 0,0 -1.84424,0.62666 -3.32858,1.80912 -1.58079,1.2593 -5.08509,2.07165 -5.08509,2.07165 z"
       id="path7045"
       sodipodi:nodetypes="csccscc" />
    <path
       style="fill:#db3f3f;fill-opacity:1;stroke:none;stroke-width:0.264583px;stroke-linecap:butt;stroke-linejoin:miter;stroke-opacity:1"
       d="m 78.406113,42.191711 c -2.87701,0.64608 -4.90175,2.08031 -5.25315,2.68069 l 0.49981,1.38849 3.08697,-2.47893 4.5369,-1.21608 z"
       id="path7047"
       sodipodi:nodetypes="cccccc" />
    <path
       style="fill:none;fill-opacity:1;stroke:#891313;stroke-width:1.365;stroke-linecap:butt;stroke-linejoin:miter;stroke-miterlimit:4;stroke-dasharray:none;stroke-opacity:1"
       d="m 73.144853,46.239291 c 0,0 1.41676,-1.47636 3.12937,-2.2306 1.49156,-0.65688 6.90409,-1.90921 6.90409,-1.90921 h -8.55415 c 0,0 -1.84424,0.62666 -3.32858,1.80912 -1.58079,1.2593 -5.08509,2.07165 -5.08509,2.07165 z"
       id="path7049"
       sodipodi:nodetypes="csccscc" />
    <path
       style="fill:#db3f42;fill-opacity:1;stroke:none;stroke-width:1.365;stroke-linecap:butt;stroke-linejoin:round;stroke-miterlimit:4;stroke-dasharray:none;stroke-opacity:1"
       d="M 6.9240026,82.119781 73.565823,46.332841 C 66.464033,33.215801 46.835293,17.253991 23.924603,29.614791 -3.0642474,44.175801 1.2758626,70.300011 6.9240026,82.119781 Z"
       id="path7051"
       sodipodi:nodetypes="ccsc" />
    <path
       style="fill:#c13434;fill-opacity:1;stroke:none;stroke-width:0.264583px;stroke-linecap:butt;stroke-linejoin:miter;stroke-opacity:1"
       d="m 6.3886426,46.459481 c -0.497,1.3937 -3.36805,7.48342 -3.62253,9.00036 -2.35229002,14.02185 4.15789,26.65994 4.15789,26.65994 l 7.5398204,-3.84308 c -3.82778,-6.04656 -4.1503,-13.41667 -4.12956,-20.33252 0.0117,-3.91121 1.78199,-8.93462 2.40438,-11.4847"
       id="path7053"
       sodipodi:nodetypes="csccac" />
    <path
       style="color:#000000;font-style:normal;font-variant:normal;font-weight:normal;font-stretch:normal;font-size:medium;line-height:normal;font-family:sans-serif;font-variant-ligatures:normal;font-variant-position:normal;font-variant-caps:normal;font-variant-numeric:normal;font-variant-alternates:normal;font-variant-east-asian:normal;font-feature-settings:normal;font-variation-settings:normal;text-indent:0;text-align:start;text-decoration:none;text-decoration-line:none;text-decoration-style:solid;text-decoration-color:#000000;letter-spacing:normal;word-spacing:normal;text-transform:none;writing-mode:lr-tb;direction:ltr;text-orientation:mixed;dominant-baseline:auto;baseline-shift:baseline;text-anchor:start;white-space:normal;shape-padding:0;shape-margin:0;inline-size:0;clip-rule:nonzero;display:inline;overflow:visible;visibility:visible;opacity:1;isolation:auto;mix-blend-mode:normal;color-interpolation:sRGB;color-interpolation-filters:linearRGB;solid-color:#000000;solid-opacity:1;vector-effect:none;fill:#e86363;fill-opacity:1;fill-rule:nonzero;stroke:none;stroke-width:1.465;stroke-linecap:butt;stroke-linejoin:miter;stroke-miterlimit:4;stroke-dasharray:none;stroke-dashoffset:0;stroke-opacity:1;color-rendering:auto;image-rendering:auto;shape-rendering:auto;text-rendering:auto;enable-background:accumulate;stop-color:#000000;stop-opacity:1"
       d="m 48.598903,26.776741 c 0,0 1.79914,0.71937 3.96487,1.77707 2.16574,1.05771 4.70088,2.47817 6.04995,3.7278 l 0.035,0.0322 v 0 c 9.74745,6.94389 13.31705,14.82061 13.31705,14.82061 l 1.33515,-0.6017 c 0,0 -3.72133,-8.20657 -13.72308,-15.34968 -1.60199,-1.47335 -4.16488,-2.86827 -6.37089,-3.94566 -2.83853,-0.94262 -2.32635,-0.82021 -4.60806,-0.46066 z"
       id="path7055"
       sodipodi:nodetypes="csccccccccc" />
    <path
       style="fill:#ffdada;fill-opacity:1;stroke:none;stroke-width:0.264583px;stroke-linecap:butt;stroke-linejoin:miter;stroke-opacity:1"
       d="m 12.738643,46.459481 c 2.55853,-7.83927 16.67896,-21.87261 30.56723,-21.16588 0,0 -8.8033,-1.04795 -19.38127,4.32119 -13.8798,7.04506 -13.23523,12.95354 -17.5359604,16.84469"
       id="path7057"
       sodipodi:nodetypes="ccsc" />
    <path
       style="fill:none;fill-opacity:1;stroke:#891313;stroke-width:1.365;stroke-linecap:butt;stroke-linejoin:round;stroke-miterlimit:4;stroke-dasharray:none;stroke-opacity:1"
       d="M 6.9240026,82.119781 73.565823,46.332841 c -7.10179,-13.11704 -26.73051,-29.07882 -49.64122,-16.71805 -7.59062,4.09528 -12.70306,9.10524 -16.0052204,14.45437 -8.43885002,13.67 -5.05498,29.55516 -0.99538,38.05062 z"
       id="path7059"
       sodipodi:nodetypes="ccssc" />
  </g>
</svg>
