<?xml version="1.0" encoding="UTF-8" standalone="no"?>
<svg
   xmlns:dc="http://purl.org/dc/elements/1.1/"
   xmlns:cc="http://creativecommons.org/ns#"
   xmlns:rdf="http://www.w3.org/1999/02/22-rdf-syntax-ns#"
   xmlns:svg="http://www.w3.org/2000/svg"
   xmlns="http://www.w3.org/2000/svg"
   xmlns:sodipodi="http://sodipodi.sourceforge.net/DTD/sodipodi-0.dtd"
   xmlns:inkscape="http://www.inkscape.org/namespaces/inkscape"
   width="117mm"
   height="155mm"
   viewBox="0 0 117 155"
   version="1.1"
   id="svg9818"
   inkscape:version="1.0.1 (3bc2e813f5, 2020-09-07)"
   sodipodi:docname="happybleach-back.svg">
  <defs
     id="defs9812" />
  <sodipodi:namedview
     id="base"
     pagecolor="#ffffff"
     bordercolor="#666666"
     borderopacity="1.0"
     inkscape:pageopacity="0.0"
     inkscape:pageshadow="2"
     inkscape:zoom="0.35355339"
     inkscape:cx="511.09058"
     inkscape:cy="533.30909"
     inkscape:document-units="mm"
     inkscape:current-layer="layer1"
     inkscape:document-rotation="0"
     showgrid="false"
     inkscape:window-width="1366"
     inkscape:window-height="705"
     inkscape:window-x="-8"
     inkscape:window-y="-8"
     inkscape:window-maximized="1"
     inkscape:snap-nodes="true"
     inkscape:object-paths="true"
     inkscape:snap-intersection-paths="true"
     inkscape:snap-smooth-nodes="true"
     inkscape:snap-midpoints="true"
     showguides="false" />
  <metadata
     id="metadata9815">
    <rdf:RDF>
      <cc:Work
         rdf:about="">
        <dc:format>image/svg+xml</dc:format>
        <dc:type
           rdf:resource="http://purl.org/dc/dcmitype/StillImage" />
        <dc:title></dc:title>
      </cc:Work>
    </rdf:RDF>
  </metadata>
  <g
     inkscape:label="Layer 1"
     inkscape:groupmode="layer"
     id="layer1">
    <path
       id="path11412"
       style="fill:#ffffff;fill-opacity:1;stroke:none;stroke-width:1.523;stroke-linecap:butt;stroke-linejoin:miter;stroke-miterlimit:4;stroke-dasharray:none;stroke-opacity:1"
       d="m 159.72529,28.748757 c -10.94543,-0.0459 -19.25497,1.85668 -20.93467,5.0363 -0.80352,1.38033 -24.38124,71.516663 -8.84873,112.107643 -0.10487,4.60533 101.2347,5.36137 101.12882,0.94996 0,0 4.14652,-5.60863 4.10834,-8.86721 -0.24985,-21.32705 -1.07597,-41.688526 -4.10834,-63.020883 -0.35437,-2.4929 -6.32031,-4.11695 -6.32031,-4.11695 0,0 -1.86588,-12.73555 -6.00475,-25.01836 -1.86246,-5.52715 -26.36682,-3.39442 -26.36682,-3.39442 l -1.75979,-8.77099 c -0.89816,-3.24229 -16.82106,-4.84608 -30.89375,-4.90509 z m 50.04068,25.3267 c 2.4661,4.52991 4.21526,11.71795 4.74037,17.47245 0.35125,3.84924 -16.00444,3.56234 -17.11959,-0.31666 -1.72155,-5.98825 -2.6143,-10.87794 -2.21228,-16.83906 0.21573,-3.19869 12.38979,-3.83663 14.5915,-0.31673 z"
       sodipodi:nodetypes="scccsscsccscsssc" />
    <path
       style="fill:#1a4ef9;fill-opacity:1;stroke:none;stroke-width:1.49174;stroke-linecap:butt;stroke-linejoin:round;stroke-miterlimit:4;stroke-dasharray:none;stroke-opacity:1"
       d="m 146.51515,31.248057 c 0.0596,-8.41106 0.90286,-17.51854 2.48151,-28.6199081 4.5585,0.0427 26.73027,-0.109895 30.59528,0 1.6973,9.4742381 2.60152,19.2863581 2.76487,28.6199081 z"
       id="path11414"
       sodipodi:nodetypes="ccccc" />
    <path
       style="fill:#07174b;fill-opacity:0.358871;stroke:none;stroke-width:0.259151px;stroke-linecap:butt;stroke-linejoin:miter;stroke-opacity:1"
       d="m 178.2977,2.8468769 c 0,0 1.04519,0.248592 0.22778,-0.04557 -0.99539,-0.358225 1.97574,1.12865 -1.6023,1.28742 -2.94698,0.13077 -10.15611,-0.344 -10.33622,0.84858 -0.35447,2.34705 0.89964,25.0235201 0.47749,26.3410201 1.49214,-0.14064 14.51223,-0.0303 14.51223,-0.0303 0,0 -0.37809,-9.64451 -0.85306,-14.44418 -0.46256,-4.67433 -1.94242,-13.9569671 -1.94242,-13.9569671 z"
       id="path910"
       sodipodi:nodetypes="csssccacc" />
    <path
       style="fill:none;fill-opacity:1;stroke:#040b90;stroke-width:1.52307;stroke-linecap:butt;stroke-linejoin:round;stroke-miterlimit:4;stroke-dasharray:none;stroke-opacity:1"
       d="m 146.03166,31.248057 c 0.0596,-8.41106 1.38635,-17.51854 2.965,-28.6199081 2.57356,-0.218283 28.84615,-0.02498 31.07877,0 1.6973,9.4742381 2.60153,19.2863581 2.76487,28.6199081 -4.64191,1.17316 -32.50435,0.72936 -36.80864,0 z"
       id="path908"
       sodipodi:nodetypes="ccccc" />
    <path
       style="fill:#d4d4d4;fill-opacity:1;stroke:none;stroke-width:0.264583px;stroke-linecap:butt;stroke-linejoin:miter;stroke-opacity:1"
       d="m 232.06482,84.449697 h -34.42445 c 0,0 1.01487,13.143717 0.93544,23.947343 -0.0937,12.73943 -0.93544,22.45064 -0.93544,22.45064 h 37.79204 l -1.12253,-9.35444 -0.37417,-13.47038 -1.12254,-15.715446 z"
       id="path921"
       sodipodi:nodetypes="ccscccccc" />
    <path
       style="fill:#808cad;fill-opacity:0.262097;stroke:none;stroke-width:0.264583px;stroke-linecap:butt;stroke-linejoin:miter;stroke-opacity:1"
       d="m 212.89572,42.955737 c 2.8802,-5.12032 9.7108,22.09373 5.82087,31.75 -1.33457,3.3129 -4.82644,3.57745 -7.67296,4.23333 -3.35618,0.77332 -8.30662,-0.50741 -8.7313,2.91041 -1.63868,13.188227 3.72782,31.882273 -3.96877,44.714583 -5.47323,9.12536 -16.60471,14.16883 -26.72306,17.4625 -13.26743,4.31874 -41.80441,2.11667 -41.80441,2.11667 l 26.45848,3.175 30.16268,0.52916 27.51682,-0.52916 16.93337,-1.5875 4.7625,-7.9375 -1.32292,-24.34167 -2.11666,-34.395823 -1.5875,-7.40834 -6.08542,-3.175 -3.70417,-19.04999 -3.17502,-6.87917 z"
       id="path962"
       sodipodi:nodetypes="csssaaccccccccccccc" />
    <path
       style="fill:#808cad;fill-opacity:0.262745;stroke:none;stroke-width:0.264583px;stroke-linecap:butt;stroke-linejoin:miter;stroke-opacity:1"
       d="m 210.56261,55.035777 c 1.19307,0.13256 -1.78856,-5.35256 -5.07526,-5.99463 -2.73602,-0.5345 -8.17283,-1.05515 -11.62569,0.9194 -2.03858,1.16578 -2.67418,2.29255 -2.53625,4.63686 0.41061,6.97915 0.92793,11.95173 2.38792,16.53645 0.45807,1.43848 6.62677,2.25171 6.62677,2.25171 -5.80232,-3.39645 -3.78996,-7.53716 -4.90698,-11.37983 l 0.0321,-8.69915 5.78877,-1.88418 4.76252,0.79375 z"
       id="path964"
       sodipodi:nodetypes="csssscccccc" />
    <path
       style="fill:#d4d4d4;fill-opacity:1;stroke:none;stroke-width:0.264583px;stroke-linecap:butt;stroke-linejoin:miter;stroke-opacity:1"
       d="m 126.39469,84.449697 h 5.84914 c 0,0 -1.28861,12.839037 -1.12253,23.198993 0.18709,11.6709 1.12253,23.19899 1.12253,23.19899 h -6.5709 l -0.46497,-9.35444 -0.155,-13.47038 0.59338,-15.715446 z"
       id="path923"
       sodipodi:nodetypes="ccscccccc" />
    <path
       id="path960"
       style="fill:none;fill-opacity:1;stroke:#6e8891;stroke-width:1.523;stroke-linecap:butt;stroke-linejoin:miter;stroke-miterlimit:4;stroke-dasharray:none;stroke-opacity:1"
       d="m 159.72529,28.748757 c -10.94543,-0.0459 -19.25497,1.85668 -20.93467,5.0363 -0.80352,1.38033 -24.38124,71.516663 -8.84873,112.107643 -0.10487,4.60533 101.2347,5.36137 101.12882,0.94996 0,0 4.14652,-5.60863 4.10834,-8.86721 -0.24985,-21.32705 -1.07597,-41.688526 -4.10834,-63.020883 -0.35437,-2.4929 -6.32031,-4.11695 -6.32031,-4.11695 0,0 -1.86588,-12.73555 -6.00475,-25.01836 -1.86246,-5.52715 -26.36682,-3.39442 -26.36682,-3.39442 l -1.75979,-8.77099 c -0.89816,-3.24229 -16.82106,-4.84608 -30.89375,-4.90509 z m 50.04068,25.3267 c 2.4661,4.52991 4.21526,11.71795 4.74037,17.47245 0.35125,3.84924 -16.00444,3.56234 -17.11959,-0.31666 -1.72155,-5.98825 -2.6143,-10.87794 -2.21228,-16.83906 0.21573,-3.19869 12.38979,-3.83663 14.5915,-0.31673 z"
       sodipodi:nodetypes="scccsscsccscsssc" />
    <path
       style="fill:#1a4ef9;fill-opacity:1;stroke:none;stroke-width:1.00248;stroke-linecap:butt;stroke-linejoin:round;stroke-miterlimit:4;stroke-dasharray:none;stroke-opacity:1"
       d="m 144.02117,31.994787 c 0.0723,-3.13709 -0.16028,-5.47356 1.75125,-9.61406 4.47849,-0.99557 35.33511,-1.02782 37.21182,0 2.05521,3.53362 1.31116,6.13292 1.50895,9.61406 z"
       id="path954"
       sodipodi:nodetypes="ccccc" />
    <path
       style="fill:#07174b;fill-opacity:0.358871;stroke:none;stroke-width:0.174156px;stroke-linecap:butt;stroke-linejoin:miter;stroke-opacity:1"
       d="m 180.82028,23.541507 c -4.5252,0.11898 -13.15487,0.0844 -13.46712,0.25886 -0.8644,0.4829 -0.16101,7.92508 -0.16101,7.92508 0.21654,0.32188 15.77083,0.26933 15.77083,0.26933 0,0 0.4232,-2.09794 0.1642,-4.91866 -0.16639,-1.81205 -0.68382,-4.28405 -0.68382,-4.28405 -0.37506,0.93947 -1.02736,0.73377 -1.62308,0.74944 z"
       id="path956"
       sodipodi:nodetypes="ssccscs" />
    <path
       style="fill:none;fill-opacity:1;stroke:#040b90;stroke-width:1.52307;stroke-linecap:butt;stroke-linejoin:round;stroke-miterlimit:4;stroke-dasharray:none;stroke-opacity:1"
       d="m 144.02117,31.994787 c -0.40967,-3.2551 -0.0504,-5.23752 1.13827,-9.61406 1.97735,-0.0939 36.07229,-0.0297 38.43778,0 1.0913,3.88768 1.18015,6.13292 0.89597,9.61406 -6.08373,0.0407 -34.92939,-0.0587 -40.47202,0 z"
       id="path958"
       sodipodi:nodetypes="ccccc" />
    <path
       style="fill:#6e8891;fill-opacity:0.177419;stroke:none;stroke-width:0.264583px;stroke-linecap:butt;stroke-linejoin:miter;stroke-opacity:1"
       d="m 235.17905,137.97545 -34.73234,2.11667 34.42444,-0.63836 z"
       id="path925"
       sodipodi:nodetypes="cccc" />
    <path
       style="fill:#6e8891;fill-opacity:0.181452;stroke:none;stroke-width:0.264583px;stroke-linecap:butt;stroke-linejoin:miter;stroke-opacity:1"
       d="m 127.42093,137.97545 7.2154,2.11667 -6.9075,-0.63836 z"
       id="path927"
       sodipodi:nodetypes="cccc" />
    <path
       id="path961"
       style="fill:#ffffff;fill-opacity:1;stroke:none;stroke-width:1.523;stroke-linecap:butt;stroke-linejoin:miter;stroke-miterlimit:4;stroke-dasharray:none;stroke-opacity:1"
       d="m 79.3537,28.864827 c 10.945317,-0.0459 19.254759,1.85668 20.93444,5.03629 0.80351,1.38033 24.38109,71.516663 8.84868,112.107643 0.10487,4.60533 -101.2338608,5.36137 -101.1279808,0.94996 0,0 -4.1465176,-5.60863 -4.1083376,-8.86721 0.24985,-21.32705 1.0759694,-41.688527 4.1083376,-63.020883 0.35437,-2.4929 6.3203088,-4.11695 6.3203088,-4.11695 0,0 1.86588,-12.73555 6.00474,-25.01836 1.86244,-5.52715 26.366645,-3.39442 26.366645,-3.39442 l 1.759771,-8.77099 c 0.898154,-3.24228 16.820864,-4.84607 30.893396,-4.90508 z m -50.040202,25.32669 c -2.46607,4.52991 -4.21522,11.71795 -4.74033,17.47245 -0.35125,3.84924 16.00434,3.56234 17.11949,-0.31666 1.72153,-5.98825 2.61428,-10.87794 2.21226,-16.83906 -0.21573,-3.19869 -12.38972,-3.83663 -14.59142,-0.31673 z"
       sodipodi:nodetypes="scccsscsccscsssc" />
    <path
       style="fill:#1a4ef9;fill-opacity:1;stroke:none;stroke-width:1.49174;stroke-linecap:butt;stroke-linejoin:round;stroke-miterlimit:4;stroke-dasharray:none;stroke-opacity:1"
       d="m 57.104196,31.364117 c 0.0596,-8.41106 0.902844,-17.51854 2.481475,-28.619903 4.558453,0.0427 26.729967,-0.109895 30.594936,0 1.697281,9.474236 2.601495,19.286353 2.764845,28.619903 z"
       id="path963"
       sodipodi:nodetypes="ccccc" />
    <path
       style="fill:#07174b;fill-opacity:0.358871;stroke:none;stroke-width:0.259151px;stroke-linecap:butt;stroke-linejoin:miter;stroke-opacity:1"
       d="m 88.886386,2.962942 c 0,0 1.045184,0.248592 0.227777,-0.04557 -0.995374,-0.358225 1.975718,1.12865 -1.602281,1.287423 -2.946942,0.13077 -10.155993,-0.344003 -10.3361,0.848574 -0.35447,2.347054 0.899624,25.023518 0.477487,26.341018 1.492121,-0.14064 14.512056,-0.0303 14.512056,-0.0303 0,0 -0.378087,-9.6445 -0.853044,-14.44418 C 90.849724,12.24558 89.369883,2.962945 89.369883,2.962945 Z"
       id="path965"
       sodipodi:nodetypes="csssccacc" />
    <path
       style="fill:none;fill-opacity:1;stroke:#040b90;stroke-width:1.52307;stroke-linecap:butt;stroke-linejoin:round;stroke-miterlimit:4;stroke-dasharray:none;stroke-opacity:1"
       d="m 56.620716,31.364117 c 0.0596,-8.41106 1.386324,-17.51854 2.964955,-28.619903 2.573535,-0.218283 28.845825,-0.02498 31.078423,0 1.697281,9.474236 2.601505,19.286353 2.764845,28.619903 -4.641863,1.17316 -32.503987,0.72936 -36.808223,0 z"
       id="path967"
       sodipodi:nodetypes="ccccc" />
    <path
       style="fill:#d4d4d4;fill-opacity:1;stroke:none;stroke-width:0.264583px;stroke-linecap:butt;stroke-linejoin:miter;stroke-opacity:1"
       d="M 7.0147298,84.565753 H 112.34706 c 0,0 -1.01487,13.14372 -0.93544,23.947347 0.0937,12.73943 1.46461,22.45064 1.46461,22.45064 H 3.6471419 L 4.769671,121.6093 5.143841,108.13892 6.2663804,92.423473 Z"
       id="path969"
       sodipodi:nodetypes="ccscccccc" />
    <path
       style="fill:#d4d4d4;fill-opacity:1;stroke:none;stroke-width:0.264583px;stroke-linecap:butt;stroke-linejoin:miter;stroke-opacity:1"
       d="m 112.68399,84.565753 h -5.8491 c 0,0 1.2886,12.83904 1.12253,23.198997 -0.18709,11.6709 -1.12253,23.19899 -1.12253,23.19899 h 6.57086 l 0.46497,-9.35444 0.15499,-13.47038 -0.59337,-15.715447 z"
       id="path975"
       sodipodi:nodetypes="ccscccccc" />
    <path
       id="path977"
       style="fill:none;fill-opacity:1;stroke:#6e8891;stroke-width:1.523;stroke-linecap:butt;stroke-linejoin:miter;stroke-miterlimit:4;stroke-dasharray:none;stroke-opacity:1"
       d="m 79.3537,28.864827 c 10.945317,-0.0459 19.254759,1.85667 20.93444,5.03629 0.80351,1.38033 24.38109,71.516663 8.84868,112.107643 0.10487,4.60533 -101.2338608,5.36137 -101.1279808,0.94996 0,0 -4.1465176,-5.60863 -4.1083376,-8.86721 0.24985,-21.32705 1.0759694,-41.688527 4.1083376,-63.020883 0.35437,-2.4929 6.3203088,-4.11695 6.3203088,-4.11695 0,0 1.86588,-12.73555 6.00474,-25.01836 1.86244,-5.52715 26.366645,-3.39442 26.366645,-3.39442 l 1.759771,-8.77099 c 0.898154,-3.24228 16.820864,-4.84607 30.893396,-4.90508 z m -50.040202,25.32669 c -2.46607,4.52991 -4.21522,11.71795 -4.74033,17.47245 -0.35125,3.84924 16.00434,3.56234 17.11949,-0.31666 1.72153,-5.98825 2.61428,-10.87794 2.21226,-16.83906 -0.21573,-3.19869 -12.38972,-3.83663 -14.59142,-0.31673 z"
       sodipodi:nodetypes="scccsscsccscsssc" />
    <path
       style="fill:#1a4ef9;fill-opacity:1;stroke:none;stroke-width:1.00248;stroke-linecap:butt;stroke-linejoin:round;stroke-miterlimit:4;stroke-dasharray:none;stroke-opacity:1"
       d="m 54.610238,32.110847 c 0.0723,-3.13708 -0.160277,-5.47355 1.751231,-9.61406 4.478446,-0.99556 35.334709,-1.02781 37.21141,0 2.055178,3.53363 1.311141,6.13293 1.508931,9.61406 z"
       id="path979"
       sodipodi:nodetypes="ccccc" />
    <path
       style="fill:#07174b;fill-opacity:0.358871;stroke:none;stroke-width:0.174156px;stroke-linecap:butt;stroke-linejoin:miter;stroke-opacity:1"
       d="m 91.408941,23.657567 c -4.525156,0.11899 -13.154725,0.0845 -13.466975,0.25886 -0.864384,0.4829 -0.161,7.92508 -0.161,7.92508 0.21653,0.32188 15.770653,0.26933 15.770653,0.26933 0,0 0.423187,-2.09794 0.164187,-4.91866 -0.166377,-1.81204 -0.683804,-4.28404 -0.683804,-4.28404 -0.37506,0.93947 -1.027354,0.73377 -1.623061,0.74943 z"
       id="path981"
       sodipodi:nodetypes="ssccscs" />
    <path
       style="fill:none;fill-opacity:1;stroke:#040b90;stroke-width:1.52307;stroke-linecap:butt;stroke-linejoin:round;stroke-miterlimit:4;stroke-dasharray:none;stroke-opacity:1"
       d="m 54.610238,32.110847 c -0.409667,-3.2551 -0.0504,-5.23752 1.138264,-9.61406 1.977318,-0.0939 36.071876,-0.0297 38.437341,0 1.091284,3.88769 1.180134,6.13293 0.895967,9.61406 -6.083667,0.0407 -34.929002,-0.0587 -40.471572,0 z"
       id="path983"
       sodipodi:nodetypes="ccccc" />
    <path
       style="fill:#6e8891;fill-opacity:0.177419;stroke:none;stroke-width:0.264583px;stroke-linecap:butt;stroke-linejoin:miter;stroke-opacity:1"
       d="M 3.9005016,138.09151 38.632708,140.20818 4.2084013,139.56982 Z"
       id="path985"
       sodipodi:nodetypes="cccc" />
    <path
       style="fill:#6e8891;fill-opacity:0.181452;stroke:none;stroke-width:0.264583px;stroke-linecap:butt;stroke-linejoin:miter;stroke-opacity:1"
       d="m 111.65776,138.09151 -7.21535,2.11667 6.90745,-0.63836 z"
       id="path987"
       sodipodi:nodetypes="cccc" />
    <path
       style="fill:#808cad;fill-opacity:0.262745;stroke:none;stroke-width:0.264583px;stroke-linecap:butt;stroke-linejoin:miter;stroke-opacity:1"
       d="m 43.543788,55.754667 c 1.193057,0.13256 1.915614,-5.35256 -1.37105,-5.99463 -2.73602,-0.5345 -10.23368,-1.61453 -14.27146,0.9194 -2.47438,1.55282 -3.34434,4.87352 -4.31082,7.63028 -1.51291,4.31533 -2.15079,8.39704 -2.1875,13.54303 -0.0108,1.50961 4.51005,1.19338 4.51005,1.19338 -1.49925,-1.52557 0.481,-2.73706 -0.63601,-6.57973 l 3.69866,-12.44092 8.96373,-1.88418 4.7625,0.79375 z"
       id="path989"
       sodipodi:nodetypes="csaascccccc" />
    <path
       style="fill:#808cad;fill-opacity:0.262745;stroke:none;stroke-width:0.264583px;stroke-linecap:butt;stroke-linejoin:miter;stroke-opacity:1"
       d="m 87.929219,31.994787 c 0,0 4.379126,22.17842 5.799717,33.67596 2.058508,16.660506 3.749809,34.508573 -1.870878,50.326843 -2.741315,7.71485 -6.087887,15.26015 -14.779926,19.61772 -13.450555,6.74315 -20.536203,8.66829 -31.430723,10.47696 -12.552391,2.08389 -29.565511,1.7746 -38.1715795,0.27789 l 5.8298485,2.01206 13.18899,1.29133 27.876163,0.18709 21.1409,-0.37418 19.082932,-0.74835 14.218707,-2.24507 3.18051,-9.9157 2.43215,-15.15418 -0.56127,-24.321517 -4.49013,-30.682536 -6.5481,-24.50862 -2.993417,-8.60608 -4.490106,-2.80633 -0.561257,1.49671 z"
       id="path991"
       sodipodi:nodetypes="csasacccccccccccccccc" />
  </g>
</svg>
