<?xml version="1.0" encoding="UTF-8" standalone="no"?>
<svg
   xmlns:dc="http://purl.org/dc/elements/1.1/"
   xmlns:cc="http://creativecommons.org/ns#"
   xmlns:rdf="http://www.w3.org/1999/02/22-rdf-syntax-ns#"
   xmlns:svg="http://www.w3.org/2000/svg"
   xmlns="http://www.w3.org/2000/svg"
   xmlns:sodipodi="http://sodipodi.sourceforge.net/DTD/sodipodi-0.dtd"
   xmlns:inkscape="http://www.inkscape.org/namespaces/inkscape"
   width="43mm"
   height="45mm"
   viewBox="0 0 43 45"
   version="1.1"
   id="svg1379"
   inkscape:version="1.0.1 (3bc2e813f5, 2020-09-07)"
   sodipodi:docname="marshmallow.svg">
  <defs
     id="defs1373" />
  <sodipodi:namedview
     id="base"
     pagecolor="#ffffff"
     bordercolor="#666666"
     borderopacity="1.0"
     inkscape:pageopacity="0.0"
     inkscape:pageshadow="2"
     inkscape:zoom="0.35"
     inkscape:cx="178.10585"
     inkscape:cy="204.68745"
     inkscape:document-units="mm"
     inkscape:current-layer="layer3"
     inkscape:document-rotation="0"
     showgrid="false"
     inkscape:window-width="1366"
     inkscape:window-height="705"
     inkscape:window-x="-8"
     inkscape:window-y="-8"
     inkscape:window-maximized="1"
     inkscape:object-paths="true"
     inkscape:snap-intersection-paths="true"
     inkscape:snap-smooth-nodes="true"
     inkscape:snap-midpoints="true"
     showguides="false" />
  <metadata
     id="metadata1376">
    <rdf:RDF>
      <cc:Work
         rdf:about="">
        <dc:format>image/svg+xml</dc:format>
        <dc:type
           rdf:resource="http://purl.org/dc/dcmitype/StillImage" />
        <dc:title></dc:title>
      </cc:Work>
    </rdf:RDF>
  </metadata>
  <g
     inkscape:label="Layer 1"
     inkscape:groupmode="layer"
     id="layer1"
     style="display:none" />
  <g
     inkscape:groupmode="layer"
     id="layer3"
     inkscape:label="Layer 2">
    <path
       style="fill:#ffffff;fill-opacity:1;stroke:#b6a1a5;stroke-width:1.385;stroke-linecap:butt;stroke-linejoin:miter;stroke-miterlimit:4;stroke-dasharray:none;stroke-opacity:1"
       d="M 36.167771,5.3613665 C 33.441101,1.5414264 16.03831,1.2694364 7.81122,4.6006665 1.4570099,7.5667565 0.20172991,38.848106 6.05104,40.902586 c 5.037841,1.69025 21.756551,2.61491 29.470681,-0.9058 5.48978,-2.96606 7.1209,-24.64823 0.64605,-34.6354195 z"
       id="path2016"
       sodipodi:nodetypes="ccccc" />
    <path
       style="fill:#eadcdf;fill-opacity:1;stroke:none;stroke-width:0.264583px;stroke-linecap:butt;stroke-linejoin:miter;stroke-opacity:1"
       d="m 36.167771,5.3613665 c 0,0 -0.28047,2.25425 -2.33377,2.64921 -2.23573,0.447 -7.19578,-0.42422 -7.81568,2.1132585 -0.495191,2.383471 -0.578111,2.875801 -0.436261,4.538831 0.161141,1.59633 0.671671,4.87262 0.897881,7.87501 0.2485,3.2982 0.25234,7.8728 0.16644,9.00883 -0.32871,4.35618 -1.262611,11.63415 -1.192231,10.93037 l 10.067621,-2.48009 2.62769,-3.13257 1.87088,-5.87992 0.40091,-6.94901 -0.53454,-7.21628 -1.60362,-7.6171795 -2.11527,-3.84046 z"
       id="path2018"
       sodipodi:nodetypes="ccccscccccccccc" />
    <path
       style="fill:none;fill-opacity:0;stroke:#ae939a;stroke-width:1.385;stroke-linecap:butt;stroke-linejoin:miter;stroke-miterlimit:4;stroke-dasharray:none;stroke-opacity:1"
       d="M 36.167771,5.3613665 C 33.441101,1.5414264 16.03831,1.2694364 7.81122,4.6006665 1.4570099,7.5667565 0.20172991,38.848106 6.05104,40.902586 c 5.037841,1.69025 21.756551,2.61491 29.470681,-0.9058 5.48978,-2.96606 7.1209,-24.64823 0.64605,-34.6354195 z"
       id="path2020"
       sodipodi:nodetypes="ccccc" />
    <path
       style="display:inline;fill:#8c62d0;fill-opacity:1;stroke:none;stroke-width:1.39752;stroke-linecap:butt;stroke-linejoin:miter;stroke-miterlimit:4;stroke-dasharray:none;stroke-opacity:1"
       d="m 68.794698,-4.873909 v 66.44501 l 0.53788,1.8e-4 v -0.008 H 138.39427 V 7.887861 L 124.75576,-4.875049 H 69.332578 Z"
       id="path1231"
       sodipodi:nodetypes="ccccccccc" />
    <path
       style="display:inline;fill:none;stroke:#000000;stroke-width:0.654442px;stroke-linecap:butt;stroke-linejoin:miter;stroke-opacity:1"
       d="m 140.1422,2.294691 c 0,0 0,0 0,0 z"
       id="path1233" />
    <rect
       style="display:inline;opacity:1;fill:#6932bf;fill-opacity:1;stroke:none;stroke-width:0.500843;stroke-linecap:square;stroke-linejoin:miter;stroke-miterlimit:4;stroke-dasharray:none;stroke-dashoffset:0;stroke-opacity:1"
       id="rect1235"
       width="2.9657876"
       height="53.675392"
       x="138.39423"
       y="7.8873787" />
    <path
       style="display:inline;fill:#bca3e4;fill-opacity:1;fill-rule:nonzero;stroke:none;stroke-width:0.264583px;stroke-linecap:butt;stroke-linejoin:miter;stroke-opacity:1"
       d="m 138.39427,7.887861 -13.63851,-12.76291 2.96569,-2e-5 13.63861,12.76292 z"
       id="path1251" />
    <path
       style="display:inline;fill:none;fill-opacity:1;stroke:#161650;stroke-width:1.38515;stroke-linecap:butt;stroke-linejoin:miter;stroke-miterlimit:4;stroke-dasharray:none;stroke-opacity:1"
       d="m 68.794698,-4.873909 v 66.44501 l 0.53788,1.8e-4 v -0.008 H 141.36006 V 7.887851 l -13.63861,-12.76292 -58.388872,2e-5 z"
       id="path1237"
       sodipodi:nodetypes="ccccccccc" />
    <rect
       style="display:inline;opacity:1;fill:#feefe9;fill-opacity:1;stroke:none;stroke-width:1.398;stroke-linecap:square;stroke-linejoin:miter;stroke-miterlimit:4;stroke-dasharray:none;stroke-dashoffset:0;stroke-opacity:1"
       id="rect1239"
       width="50.528587"
       height="38.417614"
       x="78.008812"
       y="23.146656" />
    <path
       style="display:inline;fill:none;stroke:#b9adad;stroke-width:1.385;stroke-linecap:butt;stroke-linejoin:miter;stroke-miterlimit:4;stroke-dasharray:none;stroke-opacity:1"
       d="M 78.008938,61.564761 H 128.53752"
       id="path1241"
       sodipodi:nodetypes="cc" />
    <rect
       style="display:inline;opacity:1;fill:#feefe9;fill-opacity:1;stroke:#b9adad;stroke-width:1.385;stroke-linecap:square;stroke-linejoin:miter;stroke-miterlimit:4;stroke-dasharray:none;stroke-dashoffset:0;stroke-opacity:1"
       id="rect1243"
       width="32.067703"
       height="17.342749"
       x="86.438652"
       y="-4.8745232" />
    <rect
       style="display:inline;opacity:1;fill:#8c62d0;fill-opacity:1;stroke:#b9adad;stroke-width:1.38516;stroke-linecap:square;stroke-linejoin:miter;stroke-miterlimit:4;stroke-dasharray:none;stroke-dashoffset:0;stroke-opacity:1"
       id="rect1245"
       width="5.3217564"
       height="11.164119"
       x="108.19118"
       y="-1.9295312" />
  </g>
</svg>
